<svg xmlns="http://www.w3.org/2000/svg" height="40" viewBox="0 -960 960 960" width="40"><path d="M365.333-80v-535q-93.666-21.333-150.166-90.5-56.5-69.166-56.5-158.5h66.666q0 79.667 58.167 134.5t143.833 54.833h100q35.334 0 56 8 20.667 8 46.334 31l183 175-47.333 47.333-176.001-168.667V-80h-66.666v-250H432v250h-66.667Zm112.053-649.334q-31.053 0-53.219-22.113Q402-773.561 402-804.614t22.114-53.219Q446.227-880 477.28-880q31.053 0 53.22 22.114 22.166 22.113 22.166 53.166 0 31.053-22.113 53.22-22.114 22.166-53.167 22.166Z"/></svg>